HIERARCHY
ROOT root
{
	OFFSET	0	13.1	24.9
	CHANNELS 6  Xposition Yposition Zposition Xrotation Yrotation Zrotation
	JOINT spine_1
	{
		OFFSET	0	9.99999	0
		CHANNELS 3  Xrotation Yrotation Zrotation
		JOINT spine_2
		{
			OFFSET	0	112	-10
			CHANNELS 3  Xrotation Yrotation Zrotation
			JOINT spine_3
			{
				OFFSET	0	206.5	19.3
				CHANNELS 3  Xrotation Yrotation Zrotation
				JOINT spine_4
				{
					OFFSET	0	110.4	14.6
					CHANNELS 3  Xrotation Yrotation Zrotation
					JOINT neck_1
					{
						OFFSET	0	71.8	-50.3
						CHANNELS 3  Xrotation Yrotation Zrotation
						JOINT neck_2
						{
							OFFSET	0	86.2	-25.8
							CHANNELS 3  Xrotation Yrotation Zrotation
							JOINT head_ee
							{
								OFFSET	0	179.8	-8.7
								CHANNELS 3  Xrotation Yrotation Zrotation
								End Site
								{
									OFFSET	1	0	0
								}
							}
						}
					}
					JOINT left_clavicle
					{
						OFFSET	-43.2	22.4	-70.8
						CHANNELS 3  Xrotation Yrotation Zrotation
						JOINT left_shoulder
						{
							OFFSET	-93.9	-5.79999	48.7
							CHANNELS 3  Xrotation Yrotation Zrotation
							JOINT left_elbow
							{
								OFFSET	-291.4	-30.8	15.2
								CHANNELS 3  Xrotation Yrotation Zrotation
								JOINT left_lowarm_twist
								{
									OFFSET	-110.7	-3.89999	13.6
									CHANNELS 3  Xrotation Yrotation Zrotation
									JOINT left_hand
									{
										OFFSET	-110.7	-3.89999	13.6
										CHANNELS 3  Xrotation Yrotation Zrotation
										JOINT left_ee
										{
											OFFSET	-80.8	-5.10001	12.1
											CHANNELS 3  Xrotation Yrotation Zrotation
											End Site
											{
												OFFSET	1	0	0
											}
										}
									}
								}
							}
						}
					}
					JOINT right_clavicle
					{
						OFFSET	43.2	22.4	-70.8
						CHANNELS 3  Xrotation Yrotation Zrotation
						JOINT right_shoulder
						{
							OFFSET	93.9	-5.79999	48.7
							CHANNELS 3  Xrotation Yrotation Zrotation
							JOINT right_elbow
							{
								OFFSET	291.4	-30.8	15.2
								CHANNELS 3  Xrotation Yrotation Zrotation
								JOINT right_lowarm_twist
								{
									OFFSET	110.7	-3.89999	13.6
									CHANNELS 3  Xrotation Yrotation Zrotation
									JOINT right_hand
									{
										OFFSET	110.7	-3.89999	13.6
										CHANNELS 3  Xrotation Yrotation Zrotation
										JOINT right_ee
										{
											OFFSET	80.8	-5.10001	12.1
											CHANNELS 3  Xrotation Yrotation Zrotation
											End Site
											{
												OFFSET	1	0	0
											}
										}
									}
								}
							}
						}
					}
				}
			}
		}
	}
	JOINT left_hip
	{
		OFFSET	-82.8	-127.5	0.300001
		CHANNELS 3  Xrotation Yrotation Zrotation
		JOINT left_knee
		{
			OFFSET	-28.2	-396.7	2.2
			CHANNELS 3  Xrotation Yrotation Zrotation
			JOINT left_ankle
			{
				OFFSET	-11.7	-411.3	35.4
				CHANNELS 3  Xrotation Yrotation Zrotation
				JOINT left_toes
				{
					OFFSET	0	-60	-88.6
					CHANNELS 3  Xrotation Yrotation Zrotation
					JOINT left_foot_ee
					{
						OFFSET	-22.5	-16.5	-42.2
						CHANNELS 3  Xrotation Yrotation Zrotation
						End Site
						{
							OFFSET	1	0	0
						}
					}
				}
			}
		}
	}
	JOINT right_hip
	{
		OFFSET	82.8	-127.5	0.300001
		CHANNELS 3  Xrotation Yrotation Zrotation
		JOINT right_knee
		{
			OFFSET	28.2	-396.7	2.2
			CHANNELS 3  Xrotation Yrotation Zrotation
			JOINT right_ankle
			{
				OFFSET	11.7	-411.3	35.4
				CHANNELS 3  Xrotation Yrotation Zrotation
				JOINT right_toes
				{
					OFFSET	0	-60	-88.6
					CHANNELS 3  Xrotation Yrotation Zrotation
					JOINT right_foot_ee
					{
						OFFSET	22.5	-16.5	-42.2
						CHANNELS 3  Xrotation Yrotation Zrotation
						End Site
						{
							OFFSET	1	0	0
						}
					}
				}
			}
		}
	}
}
MOTION
Frames: 6
Frame Time: 0.02
1176.04677018 729.79 -1719.15111452 -13.1491062263 11.1572384442 3.29028362776 6.23407 0.239707 -0.171783 6.23406 0.250152 -0.156182 6.2334 0.26488 -0.129642 6.23346 0.241081 -0.169848 -6.99046 10.0686 -5.16776 -6.8787 22.4175 -3.13758 -0.0 0.0 -0.0 1.06893 24.0442 4.22246 -26.7542 -28.1865 69.4645 0.201562 -5.7021 0.010038 34.1654 -0.0810626 -4.29967 0.999596 2.5116 7.70505 -0.0 0.0 -0.0 13.7832 27.1211 -27.3543 5.815 -24.416 -65.3505 0.383634 10.7604 -0.0361306 35.5889 0.139925 4.47185 2.92932 6.20535 -17.3956 0.0 0.0 0.0 40.3012 13.8063 -12.3254 -68.7709 -3.21769 9.41638 28.2135 -29.8889 -4.57217 -7.67523 0.0 0.0 -0.0 0.0 -0.0 27.1475 23.326 -7.38151 -18.2761 -0.312172 -2.77539 20.4867 -4.1322 2.79452 7.08187 -0.0 -0.0 0.0 0.0 0.0 
1169.73286844 729.308 -1733.88908095 -12.3261514348 12.4461007556 3.45904887126 6.07456 0.329152 -0.0606173 6.0745 0.332342 -0.0395495 6.07434 0.33466 -0.00425242 6.07449 0.329788 -0.0570529 -7.12999 9.93911 -4.96258 -7.03457 22.0325 -2.92796 -0.0 0.0 -0.0 0.719224 23.1073 3.66718 -28.3529 -28.3997 69.7005 0.215226 -6.08583 0.0114412 33.2456 -0.0453134 -4.18767 0.990212 4.33153 8.36527 -0.0 0.0 -0.0 13.8242 27.0669 -27.4569 8.92584 -23.2333 -65.5761 0.434305 12.1419 -0.0461913 35.3543 0.129932 4.44358 3.09189 5.27707 -18.9515 0.0 0.0 0.0 43.1901 14.4122 -14.4837 -69.0588 -3.25335 9.44294 26.1737 -30.7921 -4.35211 -8.0453 0.0 0.0 -0.0 0.0 -0.0 24.6789 19.8531 -6.9093 -18.3702 -0.311475 -2.7898 24.0215 -1.70833 3.22894 6.73392 -0.0 -0.0 0.0 0.0 0.0 
1171.29172278 729.308 -1735.10079823 -12.310157389 12.1095495303 3.38383698852 6.07456 0.329152 -0.0606173 6.0745 0.332342 -0.0395495 6.07434 0.33466 -0.00425242 6.07449 0.329788 -0.0570529 -7.12999 9.93911 -4.96258 -7.03457 22.0325 -2.92796 -0.0 0.0 -0.0 0.719224 23.1073 3.66718 -28.3529 -28.3997 69.7005 0.215226 -6.08583 0.0114412 33.2456 -0.0453134 -4.18767 0.990212 4.33153 8.36527 -0.0 0.0 -0.0 13.8242 27.0669 -27.4569 8.92584 -23.2333 -65.5761 0.434305 12.1419 -0.0461913 35.3543 0.129932 4.44358 3.09189 5.27707 -18.9515 0.0 0.0 0.0 43.1901 14.4122 -14.4837 -69.0588 -3.25335 9.44294 26.1737 -30.7921 -4.35211 -8.0453 0.0 0.0 -0.0 0.0 -0.0 24.6789 19.8531 -6.9093 -18.3702 -0.311475 -2.7898 24.0215 -1.70833 3.22894 6.73392 -0.0 -0.0 0.0 0.0 0.0 
1133.24555422 726.797 -1753.40901699 -11.6284101906 19.6232680431 5.16505828906 5.32682 0.261837 0.0976657 5.32679 0.255092 0.114129 5.32732 0.239771 0.143551 5.32739 0.259433 0.103882 -5.99368 9.90534 -4.22831 -5.86054 21.4125 -2.421 -0.0 0.0 -0.0 0.450409 23.1036 3.2961 -30.3791 -30.0825 68.8307 0.277234 -7.81989 0.0189482 31.6022 0.0140607 -3.9862 1.01355 5.24745 8.88029 -0.0 0.0 -0.0 12.6726 26.8544 -24.8204 13.9351 -21.1849 -66.6266 0.505431 14.0567 -0.0623135 33.2464 0.0453416 4.18776 3.73064 4.03052 -24.1216 0.0 0.0 0.0 48.2571 11.5393 -15.5104 -66.6507 -2.95929 9.21533 24.2312 -30.702 -4.07632 -9.73461 0.0 0.0 -0.0 0.0 -0.0 19.8545 9.22078 -4.89586 -18.4111 -0.311164 -2.79607 28.2202 4.03043 3.7557 6.71736 -0.0 -0.0 0.0 0.0 0.0 
1133.08310216 726.797 -1753.26948164 -11.6308177452 19.6560480054 5.17222142233 5.32682 0.261837 0.0976657 5.32679 0.255092 0.114129 5.32732 0.239771 0.143551 5.32739 0.259433 0.103882 -5.99368 9.90534 -4.22831 -5.86054 21.4125 -2.421 -0.0 0.0 -0.0 0.450409 23.1036 3.2961 -30.3791 -30.0825 68.8307 0.277234 -7.81989 0.0189482 31.6022 0.0140607 -3.9862 1.01355 5.24745 8.88029 -0.0 0.0 -0.0 12.6726 26.8544 -24.8204 13.9351 -21.1849 -66.6266 0.505431 14.0567 -0.0623135 33.2464 0.0453416 4.18776 3.73064 4.03052 -24.1216 0.0 0.0 0.0 48.2571 11.5393 -15.5104 -66.6507 -2.95929 9.21533 24.2312 -30.702 -4.07632 -9.73461 0.0 0.0 -0.0 0.0 -0.0 19.8545 9.22078 -4.89586 -18.4111 -0.311164 -2.79607 28.2202 4.03043 3.7557 6.71736 -0.0 -0.0 0.0 0.0 0.0 
1107.99968361 720.469 -1770.32151912 -9.8041183441 27.2255819648 5.85825940911 4.12729 -0.124269 -0.0976417 4.12729 -0.117804 -0.105351 4.1275 -0.101984 -0.12073 4.1275 -0.119772 -0.103109 -5.00251 8.12984 -1.80175 -4.92452 16.3007 -0.432423 -0.0 0.0 -0.0 0.145625 21.2893 2.68376 -26.5456 -28.5743 71.4287 0.245149 -6.92423 0.0148313 29.338 0.0863406 -3.70605 1.36912 6.42223 11.7015 -0.0 0.0 -0.0 11.2001 27.4051 -21.4023 16.8262 -18.4139 -65.8122 0.946541 25.1209 -0.210896 35.1067 0.119508 4.41369 4.56577 -0.475695 -32.437 0.0 0.0 0.0 49.2298 8.18988 -12.5534 -59.21 -2.11529 8.43784 26.9341 -28.6292 -4.33504 -12.6963 0.0 0.0 -0.0 0.0 -0.0 16.8528 -3.06786 -3.28943 -22.3362 -0.260575 -3.3961 35.476 5.13443 4.52175 4.96166 -0.0 -0.0 0.0 0.0 0.0 
